# xmcd
#
# Track frame offsets:
# 150
# 15715
# 33249
# 53172
# 65844
#
# Disc length: 1132 seconds
#
#
# Revision: 0
# Processed by: cddbd v1.5.1PL0 Copyright (c) Steve Scherf et al.
# Submitted via: FreeRIP 2.80 
#
DISCID=3d046a05
DTITLE=De La Soul - Days Off
DYEAR=2004
DGENRE=Hip-Hop
TTITLE0=The Grind Date (Wale Oyegid Remix)
TTITLE1=Do The Damn Thang
TTITLE2=Stay Away (Feat. Pete Rock and Rob-o)
TTITLE3=Hold Tight
TTITLE4=The Grind Date (Inhumanz Mash-Up)
EXTD=Hiphopsite Promo
EXTT0=
EXTT1=
EXTT2=
EXTT3=
EXTT4=
PLAYORDER=
